<mxfile host="app.diagrams.net" modified="2021-03-29T09:59:24.970Z" agent="5.0 (Macintosh; Intel Mac OS X 10_15_7) AppleWebKit/537.36 (KHTML, like Gecko) Chrome/89.0.4389.90 Safari/537.36" etag="y4_CBKVqb8vUhKrBqjsT" version="14.5.0" type="github">
  <diagram id="6E2JY-XtimwLayMRqfMQ" name="第 1 页">
    <mxGraphModel dx="946" dy="469" grid="1" gridSize="10" guides="1" tooltips="1" connect="1" arrows="1" fold="1" page="1" pageScale="1" pageWidth="827" pageHeight="1169" math="0" shadow="0">
      <root>
        <mxCell id="0" />
        <mxCell id="1" parent="0" />
        <mxCell id="UsL_qy9030k3RQYE9VW0-10" value="" style="rounded=1;whiteSpace=wrap;html=1;shadow=0;sketch=1;fillColor=#a0522d;strokeColor=#6D1F00;fontColor=#ffffff;" parent="1" vertex="1">
          <mxGeometry x="160" y="310" width="280" height="280" as="geometry" />
        </mxCell>
        <mxCell id="UsL_qy9030k3RQYE9VW0-11" value="&lt;font face=&quot;Comic Sans MS&quot; color=&quot;#f7f7f7&quot;&gt;&lt;i style=&quot;font-size: 11px&quot;&gt;&lt;b style=&quot;font-size: 11px&quot;&gt;韩&lt;br style=&quot;font-size: 11px&quot;&gt;&lt;br style=&quot;font-size: 11px&quot;&gt;西&lt;br style=&quot;font-size: 11px&quot;&gt;&lt;br style=&quot;font-size: 11px&quot;&gt;瓜&lt;/b&gt;&lt;/i&gt;&lt;/font&gt;" style="shape=ext;double=1;rounded=1;whiteSpace=wrap;html=1;shadow=1;sketch=1;fillColor=#a0522d;strokeColor=#6D1F00;fontColor=#ffffff;fillStyle=cross-hatch;" parent="1" vertex="1">
          <mxGeometry x="174" y="400" width="30" height="84.06" as="geometry" />
        </mxCell>
        <mxCell id="UsL_qy9030k3RQYE9VW0-12" value="&lt;font size=&quot;1&quot;&gt;&lt;b style=&quot;font-size: 13px&quot;&gt;分布式锁-防超卖的N+1个坑！&lt;/b&gt;&lt;/font&gt;" style="text;html=1;align=center;verticalAlign=middle;resizable=0;points=[];autosize=1;fontSize=18;sketch=1;fontFamily=Comic Sans MS;shadow=1;glass=0;fillColor=#a0522d;strokeColor=#6D1F00;fontColor=#ffffff;fillStyle=solid;" parent="1" vertex="1">
          <mxGeometry x="224" y="429.06" width="190" height="30" as="geometry" />
        </mxCell>
      </root>
    </mxGraphModel>
  </diagram>
</mxfile>
